custom-analysis
version=1
nRows=6
nColumns=98
inDegrees=no

This file contains tibia displacement and acting force.

Units are S.I. units (seconds, meters, Newtons, ...)
Angles are in degrees.

endheader
time	APT	SIT	knee_angle	aACL_R_force	pACL_R_force	aPCL_R_force	pPCL_R_force	aMCL_R_force	mMCL_R_force	pMCL_R_force	aLCL_R_force	mLCL_R_force	pLCL_R_force	aPCL_L_force	pPCL_L_force	aMCL_L_force	aLCL_L_force	aACL_R_length	pACL_R_length	aPCL_R_length	pPCL_R_length	aMCL_R_length	mMCL_R_length	pMCL_R_length	aLCL_R_length	mLCL_R_length	pLCL_R_length	aPCL_L_length	pPCL_L_length	aMCL_L_length	aLCL_L_length	aACL_R_strain	pACL_R_strain	aPCL_R_strain	pPCL_R_strain	aMCL_R_strain	mMCL_R_strain	pMCL_R_strain	aLCL_R_strain	mLCL_R_strain	pLCL_R_strain	aPCL_L_strain	pPCL_L_strain	aMCL_L_strain	aLCL_L_strain	femur_lat_meniscii_r.femur_lat_r.force.X	femur_lat_meniscii_r.femur_lat_r.force.Y	femur_lat_meniscii_r.femur_lat_r.force.Z	femur_lat_meniscii_r.femur_lat_r.torque.X	femur_lat_meniscii_r.femur_lat_r.torque.Y	femur_lat_meniscii_r.femur_lat_r.torque.Z	femur_lat_meniscii_r.meniscus_lat_r.force.X	femur_lat_meniscii_r.meniscus_lat_r.force.Y	femur_lat_meniscii_r.meniscus_lat_r.force.Z	femur_lat_meniscii_r.meniscus_lat_r.torque.X	femur_lat_meniscii_r.meniscus_lat_r.torque.Y	femur_lat_meniscii_r.meniscus_lat_r.torque.Z	femur_med_meniscii_r.femur_med_r.force.X	femur_med_meniscii_r.femur_med_r.force.Y	femur_med_meniscii_r.femur_med_r.force.Z	femur_med_meniscii_r.femur_med_r.torque.X	femur_med_meniscii_r.femur_med_r.torque.Y	femur_med_meniscii_r.femur_med_r.torque.Z	femur_med_meniscii_r.meniscus_med_r.force.X	femur_med_meniscii_r.meniscus_med_r.force.Y	femur_med_meniscii_r.meniscus_med_r.force.Z	femur_med_meniscii_r.meniscus_med_r.torque.X	femur_med_meniscii_r.meniscus_med_r.torque.Y	femur_med_meniscii_r.meniscus_med_r.torque.Z	femur_med_tibia_r.tibia_upper_r.force.X	femur_med_tibia_r.tibia_upper_r.force.Y	femur_med_tibia_r.tibia_upper_r.force.Z	femur_med_tibia_r.tibia_upper_r.torque.X	femur_med_tibia_r.tibia_upper_r.torque.Y	femur_med_tibia_r.tibia_upper_r.torque.Z	femur_med_tibia_r.femur_med_r.force.X	femur_med_tibia_r.femur_med_r.force.Y	femur_med_tibia_r.femur_med_r.force.Z	femur_med_tibia_r.femur_med_r.torque.X	femur_med_tibia_r.femur_med_r.torque.Y	femur_med_tibia_r.femur_med_r.torque.Z	femur_lat_tibia_r.tibia_upper_r.force.X	femur_lat_tibia_r.tibia_upper_r.force.Y	femur_lat_tibia_r.tibia_upper_r.force.Z	femur_lat_tibia_r.tibia_upper_r.torque.X	femur_lat_tibia_r.tibia_upper_r.torque.Y	femur_lat_tibia_r.tibia_upper_r.torque.Z	femur_lat_tibia_r.femur_lat_r.force.X	femur_lat_tibia_r.femur_lat_r.force.Y	femur_lat_tibia_r.femur_lat_r.force.Z	femur_lat_tibia_r.femur_lat_r.torque.X	femur_lat_tibia_r.femur_lat_r.torque.Y	femur_lat_tibia_r.femur_lat_r.torque.Z	femur_lat_meniscii_force_r	femur_med_meniscii_force_r	femur_lat_tibia_force_r	femur_med_tibia_force_r
      0.20512539	      0.01402436	      0.02502127	     78.40532899	     -5.58948895	      0.00000000	    921.47249761	    571.04618822	     26.19017434	      0.00000000	      0.00000000	      0.00000000	      0.00000000	      0.00000000	      0.00000000	      0.00000000	      0.00000001	      0.00000000	      0.03141323	      0.02460659	      0.03692432	      0.03371043	      0.06113605	      0.05964561	      0.05625559	      0.05098016	      0.04557076	      0.04045196	      0.01525851	      0.01651186	      0.06550154	      0.04489616	      0.01315028	     -0.01804202	      0.18745675	      0.12789946	      0.01847590	     -0.00247332	     -0.04209930	     -0.08926912	     -0.19084002	     -0.22717085	      0.00000079	     -0.32847694	      0.00000060	     -0.00000086	    263.63830554	    203.17876287	     40.61434129	    -21.06163824	      6.40928482	    104.47133365	   -263.63830554	   -203.17876287	    -40.61434129	      5.46183364	     -7.98913762	      4.69450402	      2.68979531	      0.19070891	     -0.36697726	      0.15073970	     -0.04521015	      1.07147345	     -2.68979531	     -0.19070891	      0.36697726	     -0.00591782	      0.04980610	     -0.00759905	  -1030.57619802	   -452.36714276	    285.21911100	     -9.84296694	     23.54813516	      2.06530427	   1030.57619802	    452.36714276	   -285.21911100	    122.98068263	    -17.95331915	    415.60638474	      0.00000000	      0.00000000	      0.00000000	      0.00000000	      0.00000000	      0.00000000	      0.00000000	      0.00000000	      0.00000000	      0.00000000	      0.00000000	      0.00000000	    335.31521073	      2.72140424	      0.00000000	   1161.06557655
      0.20562861	      0.01400908	      0.02512134	     78.67535903	     -5.74819678	      0.00000000	    925.19501332	    573.56984416	     26.14074776	      0.00000000	      0.00000000	      0.00000000	      0.00000000	      0.00000000	      0.00000000	      0.00000000	      0.00000001	      0.00000000	      0.03140420	      0.02460923	      0.03694580	      0.03372715	      0.06115253	      0.05965342	      0.05626511	      0.05094643	      0.04553235	      0.04041731	      0.01525851	      0.01651186	      0.06550154	      0.04489616	      0.01285888	     -0.01793665	      0.18814753	      0.12845883	      0.01875040	     -0.00234276	     -0.04193729	     -0.08987183	     -0.19152200	     -0.22783294	      0.00000079	     -0.32847694	      0.00000060	     -0.00000086	    264.97395785	    204.94053363	     41.80692002	    -21.58965655	      6.44944695	    104.96787822	   -264.97395785	   -204.94053363	    -41.80692002	      5.52231462	     -8.06901564	      4.80683025	      2.41991803	      0.15757342	     -0.36750169	      0.14994510	     -0.04035458	      0.96364245	     -2.41991803	     -0.15757342	      0.36750169	     -0.00494340	      0.04547038	     -0.00664457	  -1034.08844401	   -450.10309960	    287.91605422	     -9.79184857	     23.68808534	      2.13202060	   1034.08844401	    450.10309960	   -287.91605422	    124.01953900	    -18.02508349	    416.98482814	      0.00000000	      0.00000000	      0.00000000	      0.00000000	      0.00000000	      0.00000000	      0.00000000	      0.00000000	      0.00000000	      0.00000000	      0.00000000	      0.00000000	    337.57908588	      2.45273116	      0.00000000	   1163.97051706
      0.20616127	      0.01399230	      0.02522716	     78.96107454	     -5.67973556	      0.00000000	    928.99916131	    575.87554047	     26.20256668	      0.00000000	      0.00000000	      0.00000000	      0.00000000	      0.00000000	      0.00000000	      0.00000000	      0.00000001	      0.00000000	      0.03139448	      0.02461200	      0.03696843	      0.03374483	      0.06116988	      0.05966174	      0.05627544	      0.05091056	      0.04549167	      0.04038080	      0.01525851	      0.01651186	      0.06550154	      0.04489616	      0.01254549	     -0.01782621	      0.18887522	      0.12905031	      0.01903944	     -0.00220360	     -0.04176131	     -0.09051248	     -0.19224429	     -0.22853042	      0.00000079	     -0.32847694	      0.00000060	     -0.00000086	    265.71038127	    204.32849137	     42.21576019	    -21.74461023	      6.46508800	    105.24822092	   -265.71038127	   -204.32849137	    -42.21576019	      5.51353573	     -8.10282852	      4.83867603	      2.17915229	      0.10990677	     -0.35960833	      0.14581706	     -0.03614464	      0.86766356	     -2.17915229	     -0.10990677	      0.35960833	     -0.00397741	      0.04150590	     -0.00650600	  -1037.75527871	   -445.05344882	    289.00765201	     -9.68144918	     23.76798348	      2.10812474	   1037.75527871	    445.05344882	   -289.00765201	    124.36391817	    -18.07960729	    418.44810681	      0.00000000	      0.00000000	      0.00000000	      0.00000000	      0.00000000	      0.00000000	      0.00000000	      0.00000000	      0.00000000	      0.00000000	      0.00000000	      0.00000000	    337.83769700	      2.21135758	      0.00000000	   1165.56167307
      0.20669392	      0.01397537	      0.02533286	     79.24676030	     -5.77971975	      0.00000000	    932.83499720	    578.41984691	     26.10335537	      0.00000000	      0.00000000	      0.00000000	      0.00000000	      0.00000000	      0.00000000	      0.00000000	      0.00000001	      0.00000000	      0.03138493	      0.02461496	      0.03699077	      0.03376228	      0.06118720	      0.05967013	      0.05628602	      0.05087455	      0.04545095	      0.04034440	      0.01525851	      0.01651186	      0.06550154	      0.04489616	      0.01223764	     -0.01770786	      0.18959361	      0.12963411	      0.01932800	     -0.00206321	     -0.04158114	     -0.09115594	     -0.19296736	     -0.22922585	      0.00000079	     -0.32847694	      0.00000060	     -0.00000086	    266.92132674	    205.25823272	     42.24117701	    -21.77846337	      6.48857921	    105.70108097	   -266.92132674	   -205.25823272	    -42.24117701	      5.53760572	     -8.13526952	      4.92623451	      1.88871861	      0.10033312	     -0.33426306	      0.13541559	     -0.03125495	      0.75163805	     -1.88871861	     -0.10033312	      0.33426306	     -0.00354139	      0.03649757	     -0.00492296	  -1040.52807781	   -441.08279666	    288.33287238	     -9.55674475	     23.77004343	      2.13849215	   1040.52807781	    441.08279666	   -288.33287238	    124.00059022	    -18.10193147	    419.53434805	      0.00000000	      0.00000000	      0.00000000	      0.00000000	      0.00000000	      0.00000000	      0.00000000	      0.00000000	      0.00000000	      0.00000000	      0.00000000	      0.00000000	    339.35564502	      1.92069167	      0.00000000	   1166.35696059
      0.20722657	      0.01395773	      0.02543843	     79.53229737	     -5.92517047	      0.00000000	    936.66371369	    581.00129468	     25.97467968	      0.00000000	      0.00000000	      0.00000000	      0.00000000	      0.00000000	      0.00000000	      0.00000000	      0.00000001	      0.00000000	      0.03137527	      0.02461799	      0.03701299	      0.03377970	      0.06120438	      0.05967855	      0.05629684	      0.05083834	      0.04541017	      0.04030815	      0.01525851	      0.01651186	      0.06550154	      0.04489616	      0.01192609	     -0.01758729	      0.19030810	      0.13021710	      0.01961425	     -0.00192240	     -0.04139696	     -0.09180276	     -0.19369145	     -0.22991846	      0.00000079	     -0.32847694	      0.00000060	     -0.00000086	    268.32108269	    198.19333693	     40.29975060	    -20.79788572	      6.49619441	    106.33709075	   -268.32108269	   -198.19333693	    -40.29975060	      5.30666271	     -8.09969560	      4.69151152	      1.73209885	      0.08235485	     -0.31552816	      0.12758149	     -0.02864603	      0.68920609	     -1.73209885	     -0.08235485	      0.31552816	     -0.00308978	      0.03368856	     -0.00448995	  -1042.07983672	   -435.99934863	    288.10597990	     -9.42688176	     23.77107501	      2.14279234	   1042.07983672	    435.99934863	   -288.10597990	    123.80629809	    -18.10945294	    420.13565906	      0.00000000	      0.00000000	      0.00000000	      0.00000000	      0.00000000	      0.00000000	      0.00000000	      0.00000000	      0.00000000	      0.00000000	      0.00000000	      0.00000000	    336.00725010	      1.76252851	      0.00000000	   1165.77479547
      0.20770074	      0.01394122	      0.02553238	     79.78632121	     -6.29657834	      0.00000000	    940.08666559	    583.43196319	     25.65342200	      0.00000000	      0.00000000	      0.00000000	      0.00000000	      0.00000000	      0.00000000	      0.00000000	      0.00000001	      0.00000000	      0.03136638	      0.02462057	      0.03703266	      0.03379520	      0.06121946	      0.05968598	      0.05630659	      0.05080586	      0.04537374	      0.04027595	      0.01525851	      0.01651186	      0.06550154	      0.04489616	      0.01163926	     -0.01748432	      0.19094065	      0.13073552	      0.01986543	     -0.00179818	     -0.04123098	     -0.09238289	     -0.19433824	     -0.23053351	      0.00000079	     -0.32847694	      0.00000060	     -0.00000086	    271.01435644	    198.58270063	     40.77235581	    -20.99414736	      6.56174163	    107.41023266	   -271.01435644	   -198.58270063	    -40.77235581	      5.31622129	     -8.18850568	      4.72432889	      1.49818646	      0.04352973	     -0.27020756	      0.10892488	     -0.02477605	      0.59627196	     -1.49818646	     -0.04352973	      0.27020756	     -0.00234262	      0.02906064	     -0.00462826	  -1044.57024821	   -434.18277837	    288.28066182	     -9.35149014	     23.79654836	      2.23067015	   1044.57024821	    434.18277837	   -288.28066182	    123.82724108	    -18.13322623	    421.09595795	      0.00000000	      0.00000000	      0.00000000	      0.00000000	      0.00000000	      0.00000000	      0.00000000	      0.00000000	      0.00000000	      0.00000000	      0.00000000	      0.00000000	    338.44682800	      1.52298051	      0.00000000	   1167.36773489
